<?xml version="1.0" standalone="no"?>
<!DOCTYPE svg PUBLIC "-//W3C//DTD SVG 20010904//EN"
 "http://www.w3.org/TR/2001/REC-SVG-20010904/DTD/svg10.dtd">
<svg version="1.0" xmlns="http://www.w3.org/2000/svg"
 width="250.000000pt" height="250.000000pt" viewBox="0 0 250.000000 250.000000"
 preserveAspectRatio="xMidYMid meet">
<metadata>
Created by potrace 1.14, written by Peter Selinger 2001-2017
</metadata>
<g transform="translate(0.000000,250.000000) scale(0.100000,-0.100000)"
fill="#000000" stroke="none">
<path d="M1120 2353 c-497 -65 -878 -428 -964 -918 -71 -404 108 -843 440
-1080 120 -86 300 -167 419 -189 117 -22 288 -28 390 -14 70 10 192 43 210 58
25 20 19 74 -9 90 -21 11 -37 9 -113 -11 -121 -33 -367 -33 -485 -1 -177 48
-324 131 -447 250 -400 389 -407 1014 -17 1408 137 138 272 216 456 265 524
137 1056 -170 1204 -696 67 -235 44 -476 -65 -694 -124 -247 -267 -373 -368
-324 -56 27 -59 56 -51 378 2 65 -2 110 -10 130 -7 17 -13 33 -12 36 2 13 -48
51 -83 63 -81 28 -164 -15 -253 -130 -54 -71 -190 -293 -230 -376 -13 -27 -25
-48 -27 -48 -1 0 -1 15 0 32 2 18 6 68 10 111 3 42 8 98 11 125 3 26 6 92 6
147 2 82 -2 108 -19 147 -49 109 -148 107 -232 -5 -49 -65 -131 -228 -131
-259 1 -46 38 -70 85 -52 9 4 38 53 65 109 27 56 61 117 77 135 l28 33 6 -24
c7 -23 3 -215 -6 -289 -14 -129 -19 -195 -20 -266 0 -95 12 -114 80 -122 65
-7 93 19 155 141 185 361 325 535 375 464 12 -17 13 -42 8 -132 -13 -215 -8
-295 22 -358 36 -78 93 -117 169 -118 72 -1 113 9 160 39 181 114 356 420 395
689 13 91 6 291 -13 378 -110 508 -545 870 -1066 888 -30 1 -98 -4 -150 -10z"/>
</g>
</svg>
